<?xml version="1.0" encoding="utf-8"?>
<!-- Uploaded to: SVG Repo, www.svgrepo.com, Generator: SVG Repo Mixer Tools -->
<svg height="800px" width="800px" version="1.2" baseProfile="tiny"
	 id="Layer_1" xmlns:cc="http://creativecommons.org/ns#" xmlns:dc="http://purl.org/dc/elements/1.1/" xmlns:inkscape="http://www.inkscape.org/namespaces/inkscape" xmlns:rdf="http://www.w3.org/1999/02/22-rdf-syntax-ns#" xmlns:sodipodi="http://sodipodi.sourceforge.net/DTD/sodipodi-0.dtd" xmlns:svg="http://www.w3.org/2000/svg"
	 xmlns="http://www.w3.org/2000/svg" xmlns:xlink="http://www.w3.org/1999/xlink"  viewBox="0 0 256 256"
	 xml:space="preserve">
<g>
	<path d="M244.8,102.9c-2.2-0.6-9.6-1-9.6-1s-31.7-6.6-46-16c-9.4-4.9-18-10.9-27.6-10.9c-4.8,0-13.1,0.9-19.2,5.3
		c-3.5,3,0,0-7.4,6.6c0,0-4,4.4-6.8,4.5c-0.1,0-0.1,0-0.2,0c0,0-0.1,0-0.2,0c-2.7-0.1-6.8-4.5-6.8-4.5c-7.4-6.7-3.8-3.6-7.4-6.6
		c-6.1-4.4-14.4-5.3-19.2-5.3c-9.6,0-18.3,6-27.6,10.9c-14.3,9.5-46,16-46,16s-7.4,0.4-9.6,1c-2.2,0.6-4.7,2.3-4.7,4.5
		c0,4.3,4.5,5.2,10.8,5.2h37.3c10,0,18,1.1,24,3.1c6,2,11.4,4.2,16.2,6.8c4.8,2.5,9.7,4.9,14.6,6.9c4.8,2,10.9,3,18.3,3
		c0.1,0,0.1,0,0.2,0c0,0,0.1,0,0.2,0c7.5,0,13.6-1,18.3-3c4.8-2,9.7-4.4,14.6-6.9c4.8-2.5,10.2-4.7,16.2-6.8c6-2,14.1-3.1,24-3.1
		h37.3c6.3,0,10.8-0.9,10.8-5.2C249.4,105.2,247,103.6,244.8,102.9z"/>
	<path d="M232.3,119.6h-22.7c-12.8,0-22.6,1-29.2,3.3c-6.5,2.3-11.9,4.8-16.4,7.4c-4.5,2.7-9.3,5.2-14.3,7.4
		c-4.9,2.3-12.1,3.4-21.6,3.5c-0.1,0-0.1,0-0.2,0c0,0-0.1,0-0.2,0c-9.5,0-16.7-1.2-21.6-3.5c-5-2.3-9.8-4.8-14.3-7.4
		c-4.5-2.7-9.8-5.2-16.4-7.4c-6.5-2.3-16.3-3.3-29.2-3.3H23.7c-4.5,0-6.8,1-6.8,3.3c0,1.3,0.8,2.1,2.4,2.3c1.6,0.3,7.8,2.6,17.4,7.9
		c14.4,10.6,18.2,13,28.9,21.2c9.6,5.3,16.3,14.3,28.9,20.5c11.4,4.3,19.2,6.1,33.4,6.1c0.1,0,0.1,0,0.2,0c0,0,0.1,0,0.2,0
		c14.2,0,21.9-1.8,33.4-6.1c12.5-6.2,19.2-15.2,28.9-20.5c10.6-8.2,14.4-10.6,28.9-21.2c9.6-5.3,15.9-7.7,17.4-7.9
		c1.6-0.3,2.4-1,2.4-2.3C239.1,120.7,236.7,119.6,232.3,119.6z"/>
</g>
</svg>